<?xml version="1.0" encoding="UTF-8"?>
<svg id="Layer_2" data-name="Layer 2" xmlns="http://www.w3.org/2000/svg" xmlns:xlink="http://www.w3.org/1999/xlink" viewBox="0 0 1859.79 477.56">
  <defs>
    <style>
      .cls-1 {
        fill: url(#linear-gradient-2);
      }

      .cls-2 {
        fill: #1f1a30;
      }

      .cls-3 {
        fill: url(#linear-gradient-3);
      }

      .cls-4 {
        fill: url(#linear-gradient);
      }
    </style>
    <linearGradient id="linear-gradient" x1="552.6" y1="91.01" x2="563.7" y2="91.01" gradientUnits="userSpaceOnUse">
      <stop offset="0" stop-color="#1f1a30"/>
      <stop offset="1" stop-color="#d391fd"/>
    </linearGradient>
    <linearGradient id="linear-gradient-2" x1="36.19" y1="388.39" x2="874.39" y2="38.82" xlink:href="#linear-gradient"/>
    <linearGradient id="linear-gradient-3" x1="375.77" y1="242.73" x2="807.27" y2="242.73" xlink:href="#linear-gradient"/>
  </defs>
  <g id="Layer_1-2" data-name="Layer 1">
    <g>
      <g>
        <path class="cls-4" d="M563.7,96.06c-3.46-3.64-7.1-6.91-11.1-10.1,4,3.09,7.64,6.46,11.1,10.1"/>
        <path class="cls-1" d="M344.48,64.22V7.82h-31.29l-109.61,197.3L93.96,7.82h-31.29v56.4L31.29,7.82H0v469.73h31.29V64.22l31.38,56.31v357.03h31.29V176.92l62.58,112.79,35.29,62.58h31.29l-35.2-62.58,15.65-28.2,15.65,28.2,35.2,62.58h31.38l-35.29-62.58,62.67-112.79v300.63h31.29v-65.22c8.82,12.83,19.28,24.11,31.29,33.84,3.55,3,7.28,5.82,11.1,8.46,3.82,2.73,7.82,5.18,12.01,7.64,2.73,1.64,5.46,3.09,8.28,4.55v-36.93c-12.01-8.1-22.47-17.74-31.38-28.93v-.09c-4.46-5.37-8.46-11.1-12.1-17.28-12.83-21.38-19.19-44.84-19.19-70.41v-140.9c0-25.65,6.37-49.12,19.19-70.5,3.64-6.09,7.64-11.92,12.1-17.19v-.09c8.82-11.19,19.38-20.83,31.38-29.02,2.55-1.73,5.09-3.37,7.82-5,21.38-12.73,44.84-19.19,70.41-19.19s49.12,6.46,70.5,19.19c2.64,1.64,5.28,3.27,7.82,5,17.74,12.19,32.29,27.56,43.48,46.3,12.73,21.38,19.1,44.84,19.1,70.5v140.9c0,25.56-6.37,49.03-19.1,70.41-11.19,18.74-25.74,34.2-43.48,46.3v47.66h172.19c31.38,0,60.22-7.64,86.51-23.1,26.38-15.37,47.3-36.2,62.67-62.58,15.37-26.38,23.1-55.21,23.1-86.51v-125.26c0-31.38-7.73-60.22-23.1-86.6-15.37-26.29-36.29-47.21-62.67-62.58-26.29-15.37-55.12-23.1-86.51-23.1l-205.67-2c-14.28-3.91-29.2-5.82-44.84-5.82-18.1,0-35.48,2.55-51.94,7.82,0,0-46.05,10.63-88.96,56.4M172.28,261.52L93.96,120.53v-56.31l93.96,169.1-15.65,28.2ZM313.19,120.53l-78.32,140.99-15.65-28.2,93.96-169.1v56.31ZM876.88,305.36c0,25.56-6.46,49.03-19.19,70.41-12.83,21.47-29.93,38.48-51.3,51.3-21.38,12.83-44.84,19.19-70.5,19.19h-140.9v-.09c11.19-9.01,21.01-19.47,29.47-31.2h111.43c19.83,0,38.11-5,54.85-14.92,16.65-9.91,30.02-23.2,39.93-39.93,9.91-16.65,14.83-34.93,14.83-54.76v-125.26c0-19.83-4.91-38.11-14.83-54.85-9.91-16.65-23.29-30.02-39.93-39.93-16.74-9.91-35.02-14.83-54.85-14.83h-78.23l-31.38-.09-1.82-.09c-8.46-11.73-18.28-22.19-29.47-31.2h140.9c25.65,0,49.12,6.46,70.5,19.19,21.38,12.83,38.48,29.93,51.3,51.3,12.73,21.38,19.19,44.84,19.19,70.5v125.26ZM657.66,383.59V101.79h78.23c21.47,0,39.84,7.73,55.21,23.1,15.37,15.37,23.1,33.75,23.1,55.21v125.26c0,21.38-7.73,39.75-23.1,55.12-15.37,15.46-33.75,23.1-55.21,23.1h-78.23Z"/>
        <path class="cls-3" d="M580.16,117.43c-4.73-7.91-10.19-15.01-16.46-21.38-3.46-3.64-7.1-6.91-11.1-10.1-1.09-.91-2.46-1.64-3.64-2.55-2.91-2-5.64-4.09-8.73-5.91-16.74-9.91-35.02-14.83-54.85-14.83s-38.11,4.91-54.76,14.83c-8.82,5.18-16.65,11.37-23.47,18.47v.09c-6.28,6.28-11.73,13.46-16.46,21.38-9.91,16.74-14.92,34.93-14.92,54.85v140.9c0,19.83,5,38.11,14.92,54.76,4.73,8,10.19,15.19,16.46,21.47v.09c6.91,7.1,14.74,13.19,23.47,18.37,16.65,9.91,34.93,14.92,54.76,14.92s38.11-5,54.85-14.92c8.73-5.18,16.65-11.37,23.47-18.47v-.09c.27-.18.45-.36.55-.55,1.36-1.36,2.64-2.82,4-4.28v-.09c3-3.37,5.73-6.91,8.19-10.64v-.09c.73-.91,1.36-1.82,1.91-2.82.64-.91,1.27-1.91,1.82-2.91,9.91-16.65,14.83-34.93,14.83-54.76v-140.9c0-19.92-4.91-38.11-14.83-54.85M563.7,313.19c0,21.38-7.73,39.75-23.1,55.21-15.37,15.37-33.84,23.01-55.21,23.01s-39.75-7.64-55.21-23.01c-15.37-15.46-23.01-33.84-23.01-55.21v-140.9c0-21.47,7.64-39.84,23.01-55.21,15.46-15.37,33.84-23.1,55.21-23.1s39.84,7.73,55.21,23.1c15.37,15.37,23.1,33.75,23.1,55.21v140.9Z"/>
        <path class="cls-4" d="M563.7,96.06c-3.46-3.64-7.1-6.91-11.1-10.1,4,3.09,7.64,6.46,11.1,10.1"/>
      </g>
      <g>
        <g>
          <path class="cls-2" d="M1033.5,157.73l64.42-142.74h15.22v189.56h-15.98V54.72l-55.8,123h-15.47l-56.81-123.25v150.08h-15.98V14.99h15.22l65.18,142.74Z"/>
          <path class="cls-2" d="M1198.35,206.58c-18.77,0-32.51-5.61-41.21-16.83-8.71-11.22-13.06-28.89-13.06-53.02s4.35-41.8,13.06-53.02c8.71-11.22,22.45-16.83,41.21-16.83s32.21,5.61,40.83,16.83c8.62,11.22,12.93,28.9,12.93,53.02s-4.31,41.8-12.93,53.02c-8.62,11.22-22.24,16.83-40.83,16.83ZM1198.35,192.15c13.86,0,23.67-4.22,29.42-12.66,5.75-8.43,8.62-22.69,8.62-42.77s-2.88-34.33-8.62-42.77c-5.75-8.43-15.56-12.65-29.42-12.65s-24.18,4.22-29.93,12.65c-5.75,8.44-8.62,22.7-8.62,42.77s2.87,34.34,8.62,42.77c5.75,8.44,15.72,12.66,29.93,12.66Z"/>
          <path class="cls-2" d="M1380.7,14.99v167.54c0,4.22.67,6.92,2.03,8.1,1.35,1.18,4.48,1.69,9.38,1.52v13.16c-15.89,2.7-24.69-2.78-26.38-16.45-9.3,11.81-23.08,17.72-41.34,17.72-33.99,0-50.98-23.28-50.98-69.85,0-23.62,3.97-41.13,11.92-52.51,7.95-11.39,20.2-17.08,36.77-17.08,14.03,0,28.41,4.39,43.12,13.16V14.99h15.47ZM1325.16,192.4c12.17,0,21.89-3.71,29.17-11.14,7.27-7.42,10.91-18.22,10.91-32.39v-53.15c-15.39-9.45-29.51-14.17-42.35-14.17-12.01,0-20.63,4.3-25.87,12.91-5.24,8.61-7.86,22.69-7.86,42.26s2.92,33.75,8.75,42.52c5.83,8.78,14.92,13.16,27.26,13.16Z"/>
          <path class="cls-2" d="M1467.18,206.58c-19.27,0-33.35-5.61-42.23-16.83-8.88-11.22-13.31-28.89-13.31-53.02s4.44-41.76,13.31-52.89c8.88-11.14,22.95-16.7,42.23-16.7,16.57,0,31.02,4.9,43.37,14.68l-7.86,10.63c-9.64-7.25-21.22-10.88-34.75-10.88-14.88,0-25.36,4.18-31.45,12.53-6.09,8.35-9.13,22.57-9.13,42.64s3.04,34.34,9.13,42.77c6.09,8.44,16.57,12.66,31.45,12.66,12.51,0,24.09-3.63,34.75-10.88l7.86,10.63c-12.34,9.79-26.8,14.68-43.37,14.68Z"/>
          <path class="cls-2" d="M1581.32,206.58c-18.77,0-32.51-5.61-41.21-16.83-8.71-11.22-13.06-28.89-13.06-53.02s4.35-41.8,13.06-53.02c8.71-11.22,22.45-16.83,41.21-16.83s32.21,5.61,40.83,16.83c8.62,11.22,12.94,28.9,12.94,53.02s-4.31,41.8-12.94,53.02c-8.62,11.22-22.23,16.83-40.83,16.83ZM1581.32,192.15c13.86,0,23.67-4.22,29.42-12.66,5.75-8.43,8.62-22.69,8.62-42.77s-2.88-34.33-8.62-42.77c-5.75-8.43-15.56-12.65-29.42-12.65s-24.18,4.22-29.93,12.65c-5.75,8.44-8.62,22.7-8.62,42.77s2.87,34.34,8.62,42.77c5.75,8.44,15.73,12.66,29.93,12.66Z"/>
          <path class="cls-2" d="M1848.38,115.72v67.07c0,4.05.67,6.67,2.03,7.85,1.35,1.18,4.48,1.69,9.39,1.52v12.91c-9.13,1.68-15.89.72-20.29-2.91-4.4-3.63-6.6-10.25-6.6-19.87v-67.32c0-12.48-1.99-21.3-5.96-26.45-3.97-5.14-10.87-7.72-20.67-7.72-15.89,0-30.35,5.74-43.37,17.21,1.18,4.9,1.78,10.8,1.78,17.72v88.83h-14.97v-89.59c0-12.48-2.12-21.3-6.34-26.45-4.23-5.14-11.16-7.72-20.8-7.72-15.22,0-29.59,4.9-43.12,14.68v109.08h-15.47V68.9h13.69l1.27,13.16c14.2-10.29,29.25-15.44,45.15-15.44,17.25,0,29,6.5,35.25,19.49,14.37-12.99,30.6-19.49,48.7-19.49,13.7,0,23.84,4.01,30.43,12.02,6.6,8.01,9.89,20.37,9.89,37.08Z"/>
        </g>
        <g>
          <path class="cls-2" d="M988.45,395.47c-4.89,0-8.6,1.26-11.11,3.77-2.52,2.52-3.77,6.36-3.77,11.53v51.79h-17.61v-54.94c0-5.87,1.08-10.94,3.25-15.2,2.17-4.26,5.17-7.55,9.02-9.85,3.84-2.31,8.28-3.46,13.31-3.46h1.47c-2.66-6.57-4.61-12.86-5.87-18.87-1.26-6.01-1.89-11.67-1.89-16.98,0-6.15.63-12.02,1.89-17.61,1.26-5.59,3.14-10.83,5.66-15.73,5.17-4.33,11.08-7.76,17.72-10.28,6.64-2.52,13.52-3.77,20.65-3.77,4.33,0,8.46.46,12.37,1.36,3.91.91,7.48,2.34,10.69,4.3,6.57,3.91,11.64,9.43,15.2,16.56,3.56,7.13,5.35,15.17,5.35,24.11,0,4.47-.35,8.77-1.05,12.9-.7,4.12-1.82,8.07-3.35,11.85,3.07,4.61,6.5,7.79,10.27,9.54,3.77,1.75,8.6,2.62,14.47,2.62h1.05c.7,0,1.05.28,1.05.84v14.47c0,.7-.35,1.05-1.05,1.05h-1.05c-7.41,0-13.73-1.01-18.98-3.04-5.24-2.02-10.31-5.56-15.2-10.59-4.47,4.61-9.64,8.04-15.52,10.27-5.87,2.24-12.02,3.36-18.45,3.36h-28.52ZM994.11,339.7c0,6.43.56,12.79,1.68,19.08,1.12,6.29,3.21,13.07,6.29,20.34h14.89c6.29,0,11.56-1.43,15.83-4.3,4.26-2.86,7.51-7.06,9.75-12.58,2.23-5.52,3.35-12.27,3.35-20.23,0-8.81-2.41-16-7.23-21.6-4.82-5.59-10.66-8.39-17.51-8.39-4.33,0-8.56.73-12.69,2.2-4.12,1.47-8.07,3.6-11.85,6.39-1.26,2.94-1.99,5.94-2.2,9.02-.21,3.08-.32,6.43-.32,10.07Z"/>
          <path class="cls-2" d="M1122.01,379.12c.7,0,1.05.28,1.05.84v14.47c0,.7-.35,1.05-1.05,1.05h-37.95c-.7,0-1.05-.35-1.05-1.05v-14.47c0-.56.35-.84,1.05-.84h37.95Z"/>
          <path class="cls-2" d="M1157.87,379.12c.7,0,1.05.28,1.05.84v14.47c0,.7-.35,1.05-1.05,1.05h-37.95c-.7,0-1.05-.35-1.05-1.05v-14.47c0-.56.35-.84,1.05-.84h37.95Z"/>
          <path class="cls-2" d="M1193.72,379.12c.7,0,1.05.28,1.05.84v14.47c0,.7-.35,1.05-1.05,1.05h-37.95c-.7,0-1.05-.35-1.05-1.05v-14.47c0-.56.35-.84,1.05-.84h37.95Z"/>
          <path class="cls-2" d="M1229.57,379.12c.7,0,1.05.28,1.05.84v14.47c0,.7-.35,1.05-1.05,1.05h-37.95c-.7,0-1.05-.35-1.05-1.05v-14.47c0-.56.35-.84,1.05-.84h37.95Z"/>
          <path class="cls-2" d="M1227.47,395.47c-.7,0-1.05-.35-1.05-1.05v-14.47c0-.56.35-.84,1.05-.84h88.27v-38.58c0-10.48-3.14-18.17-9.44-23.06-6.29-4.89-16.01-7.34-29.14-7.34h-35.65v-17.19c2.23-4.75,4.93-9.43,8.07-14.05,3.15-4.61,6.67-9.23,10.59-13.84,7.97-9.08,16.84-17.19,26.63-24.32,9.78-7.13,19.29-12.44,28.52-15.94l6.71,15.94c-6.43,2.52-12.89,5.77-19.39,9.75-6.5,3.98-12.62,8.39-18.35,13.21-5.73,4.82-10.8,9.82-15.2,14.99-4.4,5.17-7.79,10.21-10.17,15.1h18.24c18.31,0,32.29,3.77,41.93,11.32,9.65,7.55,14.47,18.31,14.47,32.29v58.08h-106.1Z"/>
          <path class="cls-2" d="M1358.73,379.12h69.82c-.7-5.31-1.64-10.34-2.83-15.1-1.19-4.75-2.55-9.29-4.09-13.63-3.92-11.18-9.26-21.18-16.04-29.98-6.78-8.81-15.34-16.63-25.68-23.48l6.71-15.94c10.76,5.59,20.16,13,28.2,22.23,8.04,9.22,14.75,20.2,20.13,32.92,5.38,12.72,9.26,27.19,11.64,43.4v15.94h-87.85v-16.35Z"/>
          <path class="cls-2" d="M1507.39,445.79c-7.13,0-13.84-.91-20.13-2.73-6.29-1.82-12.16-4.48-17.61-7.97l8.39-14.05c4.47,2.37,9.12,4.37,13.94,5.98,4.82,1.61,10.1,2.41,15.83,2.41,9.5,0,16.95-2.55,22.33-7.65,5.38-5.1,8.07-11.85,8.07-20.23v-6.08h-20.55c-14.96,0-26.49-4.09-34.6-12.27-8.11-8.18-12.16-20.02-12.16-35.54,0-11.04,2.34-20.58,7.02-28.62,4.68-8.04,11.35-14.26,20.02-18.66,8.67-4.4,18.8-6.6,30.4-6.6h27.47v106.72c0,14.26-4.23,25.37-12.69,33.34-8.46,7.97-20.37,11.95-35.75,11.95ZM1538,379.12v-68.98h-9.02c-12.44,0-22.12,3.29-29.04,9.85-6.92,6.57-10.38,15.73-10.38,27.47,0,10.9,2.38,18.91,7.13,24.01,4.75,5.1,11.95,7.65,21.6,7.65h19.71ZM1573.01,379.12c.7,0,1.05.28,1.05.84v14.47c0,.7-.35,1.05-1.05,1.05h-37.95c-.7,0-1.05-.35-1.05-1.05v-14.47c0-.56.35-.84,1.05-.84h37.95Z"/>
          <path class="cls-2" d="M1608.87,379.12c.7,0,1.05.28,1.05.84v14.47c0,.7-.35,1.05-1.05,1.05h-37.95c-.7,0-1.05-.35-1.05-1.05v-14.47c0-.56.35-.84,1.05-.84h37.95Z"/>
          <path class="cls-2" d="M1644.72,379.12c.7,0,1.05.28,1.05.84v14.47c0,.7-.35,1.05-1.05,1.05h-37.95c-.7,0-1.05-.35-1.05-1.05v-14.47c0-.56.35-.84,1.05-.84h37.95Z"/>
          <path class="cls-2" d="M1680.57,379.12c.7,0,1.05.28,1.05.84v14.47c0,.7-.35,1.05-1.05,1.05h-37.95c-.7,0-1.05-.35-1.05-1.05v-14.47c0-.56.35-.84,1.05-.84h37.95Z"/>
          <path class="cls-2" d="M1716.42,379.12c.7,0,1.05.28,1.05.84v14.47c0,.7-.35,1.05-1.05,1.05h-37.95c-.7,0-1.05-.35-1.05-1.05v-14.47c0-.56.35-.84,1.05-.84h37.95Z"/>
          <path class="cls-2" d="M1752.28,379.12c.7,0,1.05.28,1.05.84v14.47c0,.7-.35,1.05-1.05,1.05h-37.95c-.7,0-1.05-.35-1.05-1.05v-14.47c0-.56.35-.84,1.05-.84h37.95Z"/>
          <path class="cls-2" d="M1750.18,395.47c-.7,0-1.05-.35-1.05-1.05v-14.47c0-.56.35-.84,1.05-.84h26c-2.66-6.85-4.61-13.24-5.87-19.19-1.26-5.94-1.89-11.5-1.89-16.67,0-6.15.63-12.02,1.89-17.61,1.26-5.59,3.14-10.83,5.66-15.73,5.17-4.33,11.08-7.76,17.72-10.28,6.64-2.52,13.52-3.77,20.65-3.77,4.33,0,8.46.46,12.37,1.36,3.91.91,7.47,2.34,10.69,4.3,6.57,3.91,11.64,9.43,15.2,16.56,3.57,7.13,5.35,15.17,5.35,24.11,0,5.59-.49,10.73-1.47,15.41-.98,4.68-2.45,9.05-4.4,13.11-3.91,7.97-9.54,14.08-16.88,18.35-7.34,4.27-15.69,6.4-25.06,6.4h-59.97ZM1787.29,339.7c0,6.43.56,12.79,1.68,19.08,1.12,6.29,3.21,13.07,6.29,20.34h14.89c6.29,0,11.56-1.43,15.83-4.3,4.26-2.86,7.51-7.06,9.75-12.58,2.23-5.52,3.35-12.27,3.35-20.23,0-8.81-2.41-16-7.23-21.6-4.82-5.59-10.66-8.39-17.51-8.39-4.47,0-8.84.81-13.1,2.41-4.27,1.61-8.07,3.67-11.43,6.18-1.12,2.94-1.82,5.94-2.1,9.02-.28,3.08-.42,6.43-.42,10.07Z"/>
        </g>
      </g>
    </g>
  </g>
</svg>